<?xml version="1.0" encoding="utf-8"?>
<!-- Generator: Adobe Illustrator 24.0.3, SVG Export Plug-In . SVG Version: 6.00 Build 0)  -->
<svg version="1.1" id="Layer_1" xmlns="http://www.w3.org/2000/svg" xmlns:xlink="http://www.w3.org/1999/xlink" x="0px" y="0px"
	 viewBox="0 0 627.3 28.2" style="enable-background:new 0 0 627.3 28.2;" xml:space="preserve">
<style type="text/css">
	.st0{fill:url(#SVGID_1_);}
	.st1{fill:url(#SVGID_2_);}
	.st2{fill:url(#SVGID_3_);}
	.st3{fill:url(#SVGID_4_);}
	.st4{fill:#E86324;}
	.st5{fill:#1D1D1B;}
	.st6{fill:#E11F26;}
	.st7{fill:#F39E1E;}
	.st8{fill-rule:evenodd;clip-rule:evenodd;fill:#0A97D4;}
	.st9{fill-rule:evenodd;clip-rule:evenodd;fill:#E21E29;}
	.st10{fill-rule:evenodd;clip-rule:evenodd;fill:#FFFFFF;}
	.st11{fill:#F7941F;}
	.st12{fill:#FFFFFF;}
	.st13{fill:#4E4E4E;}
	.st14{fill:#010101;}
	.st15{fill:#CD1C6A;}
	.st16{fill:#044F90;}
	.st17{fill:#FEDC00;}
	.st18{fill:#46BC92;}
	.st19{fill:#7ECBB7;}
	.st20{fill:#25B280;}
	.st21{fill:#E6E6E5;}
</style>
<g>
	<g>
		
			<linearGradient id="SVGID_1_" gradientUnits="userSpaceOnUse" x1="5.828" y1="58.0559" x2="87.3771" y2="57.5213" gradientTransform="matrix(1 0 0 1 -0.88 -43.4197)">
			<stop  offset="0" style="stop-color:#252960"/>
			<stop  offset="1" style="stop-color:#3E4499"/>
		</linearGradient>
		<path class="st0" d="M87,27.7h-6.5c-0.2-1.1-0.5-2.3-0.7-3.4c-0.1-0.5-0.2-0.7-0.8-0.6c-2.6,0-5.2,0-7.9,0c-0.3,0-0.6,0.2-0.7,0.5
			c-0.4,1.1-0.8,2.1-1.2,3.2c-0.1,0.1-0.2,0.3-0.4,0.3c-2.3,0-4.7,0-7.2,0c0.4-1.1,0.9-2.1,1.3-3.1C66,17.3,69,10.1,72.1,2.8
			c0.5-1.4,1.9-2.4,3.4-2.2h5.7c0.2,0.9,0.4,1.8,0.6,2.6c1.5,7.2,3,14.4,4.5,21.6c0.2,0.9,0.4,1.8,0.6,2.8v0.1H87z M78.4,18.1
			c-0.7-3.3-1.4-6.6-2.1-9.9h-0.1l-3.6,9.9H78.4z"/>
		
			<linearGradient id="SVGID_2_" gradientUnits="userSpaceOnUse" x1="5.8286" y1="57.9155" x2="87.3776" y2="57.3809" gradientTransform="matrix(1 0 0 1 -0.88 -43.4197)">
			<stop  offset="0" style="stop-color:#252960"/>
			<stop  offset="1" style="stop-color:#3E4499"/>
		</linearGradient>
		<path class="st1" d="M61.1,0.6c0.8,0.2,1.5,0.4,2.4,0.7c-0.4,2-0.8,3.9-1.2,5.7c-1.1-0.3-2.1-0.7-3.2-0.9c-1.5-0.4-3-0.4-4.4,0
			C54.1,6.3,53.5,6.6,53,7c-0.7,0.5-0.8,1.5-0.2,2.2c0.1,0.1,0.1,0.2,0.2,0.2c0.5,0.5,1.1,0.9,1.8,1.3c1.4,0.9,2.9,1.6,4.3,2.5
			c1.7,1,2.8,2.7,3.1,4.6c0.5,3.3-1,6.6-3.9,8.3c-1.9,1.2-4,1.9-6.2,2c-3.1,0.3-6.2-0.1-9.1-1c-0.2-0.1-0.4-0.1-0.6-0.2
			c-0.1,0-0.1-0.1-0.2-0.1c0.4-2,0.8-3.9,1.3-5.9c0.5,0.2,1,0.4,1.5,0.6c2.3,1,4.7,1.3,7.2,0.9c0.7-0.1,1.3-0.4,1.8-0.8
			c0.9-0.5,1.2-1.7,0.7-2.7c-0.1-0.2-0.3-0.4-0.5-0.5c-0.7-0.6-1.5-1.1-2.3-1.5c-1.3-0.8-2.6-1.4-3.8-2.3c-1.6-1-2.6-2.7-2.9-4.5
			c-0.3-2.7,0.8-5.5,3-7.1c1.9-1.5,4.3-2.4,6.7-2.6C56.9,0,59,0.1,61.1,0.6z"/>
		
			<linearGradient id="SVGID_3_" gradientUnits="userSpaceOnUse" x1="5.8204" y1="57.6193" x2="87.3773" y2="57.0769" gradientTransform="matrix(1 0 0 1 -0.88 -43.4197)">
			<stop  offset="0" style="stop-color:#252960"/>
			<stop  offset="1" style="stop-color:#3E4499"/>
		</linearGradient>
		<path class="st2" d="M33,0.6c-0.4,0.9-0.7,1.7-1.1,2.6c-3.4,8-6.7,16.1-10.1,24.1c-0.1,0.3-0.4,0.6-0.8,0.5c-2.1,0-4.2,0-6.4,0
			c-0.5,0-0.6-0.2-0.7-0.6c-1.8-7-3.6-14-5.4-21.1C8.3,4.9,7.4,3.9,6.3,3.4c-1.9-0.8-4-1.5-6-2L0,1.3c0-0.8,0-0.8,0.8-0.8H12
			c1.7-0.1,3.1,1.1,3.4,2.8c0.9,4.9,1.9,9.9,2.8,14.8c0,0.2,0.1,0.4,0.1,0.7c0.1-0.1,0.1-0.3,0.2-0.4c2.3-5.8,4.6-11.7,6.9-17.5
			c0.1-0.3,0.3-0.5,0.6-0.4c2.2,0,4.3,0,6.5,0L33,0.6z"/>
		
			<linearGradient id="SVGID_4_" gradientUnits="userSpaceOnUse" x1="5.8213" y1="57.9282" x2="87.3781" y2="57.3859" gradientTransform="matrix(1 0 0 1 -0.88 -43.4197)">
			<stop  offset="0" style="stop-color:#252960"/>
			<stop  offset="1" style="stop-color:#3E4499"/>
		</linearGradient>
		<path class="st3" d="M30.2,27.8c1.9-9.1,3.9-18.1,5.8-27.1h7.1c-0.3,1.4-0.6,2.7-0.9,4.1c-1.6,7.5-3.2,14.9-4.8,22.4
			c-0.1,0.5-0.3,0.7-0.8,0.7c-1.9,0-3.9,0-5.8,0L30.2,27.8z"/>
	</g>
	<g>
		<ellipse class="st4" cx="143.6" cy="11.2" rx="4.2" ry="8.7"/>
		<path class="st5" d="M131.8,25.3c-0.1-0.1-0.2-0.2-0.4-0.2c-0.1-0.1-0.3-0.1-0.5-0.1c-0.1,0-0.2,0-0.3,0s-0.2,0-0.3,0.1
			c-0.1,0-0.2,0.1-0.3,0.2s-0.2,0.2-0.2,0.3c-0.1-0.2-0.2-0.3-0.4-0.4s-0.4-0.1-0.6-0.1c-0.1,0-0.2,0-0.2,0c-0.1,0-0.2,0-0.2,0.1
			c-0.1,0-0.2,0.1-0.2,0.1c-0.1,0.1-0.1,0.1-0.2,0.2v-0.4h-0.6V28h0.6v-1.6c0-0.1,0-0.2,0.1-0.3c0-0.1,0.1-0.2,0.2-0.2
			c0.1-0.1,0.1-0.1,0.2-0.1c0.1,0,0.2-0.1,0.3-0.1c0.2,0,0.4,0.1,0.5,0.2c0.1,0.2,0.2,0.4,0.2,0.6v1.6h0.6v-1.6c0-0.1,0-0.2,0.1-0.3
			c0-0.1,0.1-0.2,0.2-0.2c0.1-0.1,0.1-0.1,0.2-0.1c0.1,0,0.2-0.1,0.3-0.1c0.2,0,0.4,0.1,0.5,0.2c0.1,0.2,0.2,0.4,0.2,0.6v1.6h0.6
			v-1.9c0-0.2,0-0.3-0.1-0.5C132,25.5,131.9,25.4,131.8,25.3z"/>
		<path class="st5" d="M135.1,25.4c-0.2-0.3-0.6-0.4-0.9-0.4c-0.2,0-0.4,0-0.6,0.1c-0.2,0.1-0.3,0.2-0.5,0.3
			c-0.1,0.1-0.2,0.3-0.3,0.5c-0.1,0.4-0.1,0.8,0,1.2c0.1,0.2,0.2,0.4,0.3,0.5s0.3,0.2,0.5,0.3c0.2,0.1,0.4,0.1,0.6,0.1
			c0.2,0,0.4,0,0.5-0.1c0.2-0.1,0.3-0.2,0.4-0.3V28h0.6v-2.9h-0.6V25.4z M135.1,26.9c0,0.1-0.1,0.2-0.2,0.3
			c-0.1,0.1-0.2,0.2-0.3,0.2c-0.2,0.1-0.5,0.1-0.7,0c-0.1,0-0.2-0.1-0.3-0.2s-0.1-0.2-0.2-0.3c0-0.1-0.1-0.2-0.1-0.4
			c0-0.1,0-0.2,0.1-0.4c0-0.1,0.1-0.2,0.2-0.3c0.1-0.1,0.2-0.2,0.3-0.2s0.2-0.1,0.4-0.1c0.1,0,0.2,0,0.4,0.1c0.1,0,0.2,0.1,0.3,0.2
			s0.1,0.2,0.2,0.3c0,0.1,0.1,0.2,0.1,0.4C135.1,26.6,135.1,26.7,135.1,26.9z"/>
		<path class="st5" d="M138.7,26.5c-0.2-0.2-0.5-0.3-0.8-0.3h-0.3h-0.2c-0.1,0-0.1,0-0.2-0.1l-0.1-0.1v-0.1c0-0.1,0.1-0.2,0.1-0.3
			c0.1-0.1,0.3-0.1,0.4-0.1c0.1,0,0.2,0,0.3,0s0.2,0,0.3,0.1c0.1,0,0.2,0.1,0.2,0.1c0.1,0,0.1,0.1,0.2,0.1l0.3-0.5
			c-0.2-0.1-0.3-0.2-0.5-0.2c-0.2-0.1-0.4-0.1-0.7-0.1c-0.2,0-0.3,0-0.5,0.1c-0.1,0-0.3,0.1-0.4,0.2c-0.1,0.1-0.2,0.2-0.2,0.3
			c-0.1,0.1-0.1,0.3-0.1,0.4c0,0.2,0.1,0.4,0.3,0.6s0.5,0.3,0.7,0.3h0.3c0.1,0,0.3,0.1,0.4,0.1c0.1,0,0.1,0.1,0.1,0.2
			s-0.1,0.2-0.2,0.3c-0.2,0.1-0.3,0.1-0.5,0.1c-0.1,0-0.2,0-0.3,0s-0.2,0-0.3-0.1c-0.1,0-0.1-0.1-0.2-0.1c-0.1,0-0.1-0.1-0.2-0.1
			l-0.3,0.5c0.1,0.1,0.2,0.1,0.3,0.2c0.1,0,0.2,0.1,0.3,0.1s0.2,0,0.3,0.1c0.1,0,0.2,0,0.3,0c0.2,0,0.4,0,0.6-0.1
			c0.2,0,0.3-0.1,0.4-0.2c0.1-0.1,0.2-0.2,0.3-0.3c0-0.1,0.1-0.2,0.1-0.3C139,26.8,138.9,26.6,138.7,26.5z"/>
		<path class="st5" d="M144.7,25.4c-0.1-0.1-0.3-0.2-0.4-0.3c-0.2-0.1-0.4-0.1-0.6-0.1c-0.2,0-0.4,0-0.6,0.1
			c-0.2,0.1-0.3,0.2-0.5,0.3c-0.1,0.1-0.2,0.3-0.3,0.5s-0.1,0.4-0.1,0.6s0,0.4,0.1,0.6s0.2,0.3,0.3,0.5c0.1,0.1,0.3,0.2,0.5,0.3
			c0.2,0.1,0.4,0.1,0.6,0.1c0.2,0,0.4,0,0.6-0.1c0.2-0.1,0.4-0.2,0.6-0.3l-0.3-0.5c-0.1,0.1-0.3,0.2-0.4,0.2
			c-0.1,0.1-0.3,0.1-0.4,0.1c-0.1,0-0.2,0-0.3,0s-0.2-0.1-0.3-0.1c-0.1-0.1-0.1-0.1-0.2-0.2c-0.1-0.1-0.1-0.2-0.1-0.3h2.2v-0.1v-0.1
			c0-0.2,0-0.4-0.1-0.6C144.9,25.7,144.8,25.5,144.7,25.4z M142.9,26.2c0-0.1,0-0.2,0.1-0.3c0-0.1,0.1-0.2,0.2-0.2
			c0.1-0.1,0.1-0.1,0.2-0.1c0.1,0,0.2-0.1,0.3-0.1c0.2,0,0.4,0.1,0.5,0.2s0.2,0.3,0.2,0.5H142.9z"/>
		<path class="st5" d="M153.3,25.4c-0.2-0.3-0.6-0.4-0.9-0.4c-0.4,0-0.8,0.2-1,0.4c-0.1,0.1-0.2,0.3-0.3,0.5c-0.2,0.4-0.2,0.8,0,1.2
			c0.1,0.2,0.2,0.4,0.3,0.5c0.3,0.3,0.6,0.4,1,0.4c0.2,0,0.4,0,0.6-0.1c0.1-0.1,0.3-0.2,0.4-0.3V28h0.6v-2.9h-0.6L153.3,25.4z
			 M153.2,26.9c0,0.1-0.1,0.2-0.2,0.3c-0.1,0.1-0.2,0.2-0.3,0.2s-0.2,0.1-0.4,0.1c-0.1,0-0.3,0-0.4-0.1c-0.1,0-0.2-0.1-0.3-0.2
			s-0.1-0.2-0.2-0.3c0-0.1-0.1-0.2-0.1-0.4c0-0.1,0-0.2,0.1-0.4c0-0.1,0.1-0.2,0.2-0.3c0.1-0.1,0.2-0.2,0.3-0.2
			c0.1-0.1,0.2-0.1,0.4-0.1c0.1,0,0.2,0,0.4,0.1c0.1,0,0.2,0.1,0.3,0.2s0.1,0.2,0.2,0.3c0,0.1,0.1,0.2,0.1,0.4
			C153.3,26.6,153.3,26.7,153.2,26.9z"/>
		<path class="st5" d="M141.5,27.4c-0.1,0-0.2,0.1-0.3,0.1s-0.1,0-0.2,0c-0.1,0-0.1-0.1-0.1-0.1s-0.1-0.1-0.1-0.2s0-0.2,0-0.3v-1.3
			h1.1V25h-1v-0.9h-0.6V25h-0.6v0.6h0.6v1.3c0,0.3,0.1,0.6,0.3,0.9c0.2,0.2,0.5,0.3,0.8,0.3c0.2,0,0.3,0,0.5-0.1
			c0.1,0,0.2-0.1,0.3-0.1l-0.2-0.5C141.6,27.3,141.5,27.3,141.5,27.4z"/>
		<path class="st5" d="M147.3,24.9c-0.2,0-0.3,0-0.5,0.1s-0.3,0.2-0.4,0.4V25h-0.6v2.9h0.6v-1.6c0-0.1,0-0.2,0.1-0.3
			c0-0.1,0.1-0.2,0.1-0.3c0.1-0.1,0.1-0.1,0.2-0.2c0.1,0,0.2-0.1,0.3-0.1s0.2,0,0.3,0h0.1l0.2-0.6c-0.1,0-0.1,0-0.2,0
			C147.4,24.9,147.4,24.9,147.3,24.9z"/>
		<path class="st5" d="M156.2,24.9c-0.2,0-0.3,0-0.5,0.1s-0.3,0.2-0.4,0.4V25h-0.6v2.9h0.6v-1.6c0-0.1,0-0.2,0.1-0.3
			c0-0.1,0.1-0.2,0.1-0.3c0.1-0.1,0.1-0.1,0.2-0.2c0.1,0,0.2-0.1,0.3-0.1s0.2,0,0.3,0h0.1l0.2-0.6c-0.1,0-0.1,0-0.2,0
			C156.4,24.9,156.3,24.9,156.2,24.9z"/>
		<path class="st5" d="M159.2,23.8v1.6c-0.2-0.3-0.6-0.4-0.9-0.4c-0.4,0-0.8,0.2-1,0.4c-0.1,0.1-0.2,0.3-0.3,0.5
			c-0.2,0.4-0.2,0.8,0,1.2c0.1,0.2,0.2,0.3,0.3,0.5c0.3,0.3,0.7,0.4,1,0.4c0.2,0,0.4,0,0.5-0.1c0.2-0.1,0.3-0.2,0.4-0.3V28h0.6v-4.2
			H159.2z M159.2,26.9c0,0.1-0.1,0.2-0.2,0.3c-0.1,0.1-0.2,0.2-0.3,0.2c-0.2,0.1-0.5,0.1-0.7,0c-0.1,0-0.2-0.1-0.3-0.2
			s-0.1-0.2-0.2-0.3c0-0.1-0.1-0.2-0.1-0.4c0-0.1,0-0.2,0.1-0.4c0-0.1,0.1-0.2,0.2-0.3c0.1-0.1,0.2-0.2,0.3-0.2s0.2-0.1,0.4-0.1
			c0.1,0,0.2,0,0.4,0.1c0.1,0,0.2,0.1,0.3,0.2s0.1,0.2,0.2,0.3c0,0.1,0.1,0.2,0.1,0.4C159.3,26.6,159.2,26.7,159.2,26.9z"/>
		<path class="st5" d="M148.8,25.8c0.1-0.1,0.2-0.1,0.3-0.2c0.1,0,0.2-0.1,0.4-0.1l0,0c0.1,0,0.3,0,0.4,0.1c0.1,0,0.2,0.1,0.3,0.2
			l0.3-0.5c-0.1-0.1-0.3-0.2-0.4-0.2c-0.4-0.2-0.9-0.2-1.3,0c-0.2,0.1-0.4,0.2-0.5,0.3c-0.1,0.1-0.2,0.3-0.3,0.5
			c-0.2,0.4-0.2,0.8,0,1.2c0.1,0.2,0.2,0.4,0.3,0.5s0.3,0.2,0.5,0.3c0.4,0.2,0.9,0.2,1.3,0c0.1-0.1,0.3-0.1,0.4-0.2l-0.3-0.5
			c-0.1,0.1-0.2,0.1-0.3,0.2c-0.1,0-0.3,0.1-0.4,0.1l0,0c-0.1,0-0.3,0-0.4-0.1c-0.1,0-0.2-0.1-0.3-0.2s-0.2-0.2-0.2-0.3
			c-0.1-0.2-0.1-0.5,0-0.8C148.7,26,148.7,25.9,148.8,25.8z"/>
		<path class="st5" d="M161.2,27.5L161.2,27.5c0.1,0,0.2,0,0.2,0.1l0.1,0.1v0.1v0.1c0,0,0,0.1-0.1,0.1l-0.1,0.1h-0.1h-0.1
			c0,0-0.1,0-0.1-0.1l-0.1-0.1v-0.1v-0.1c0,0,0-0.1,0.1-0.1C161,27.6,161.1,27.6,161.2,27.5L161.2,27.5z M161.2,28
			C161.2,28,161.3,28,161.2,28c0.1,0,0.1,0,0.2-0.1c0,0,0,0,0-0.1v-0.1v-0.1c0,0,0,0,0-0.1c0,0,0,0-0.1,0h-0.1h-0.1c0,0,0,0-0.1,0
			c0,0,0,0,0,0.1v0.1v0.1v0.1C161.1,28,161.1,28,161.2,28L161.2,28L161.2,28z M161.2,27.7C161.2,27.7,161.3,27.7,161.2,27.7
			c0.1,0.1,0.1,0.1,0.1,0.1s0,0-0.1,0l0.1,0.1h-0.1l-0.1-0.1l0,0v0.1H161v-0.3L161.2,27.7z M161.2,27.7L161.2,27.7L161.2,27.7
			C161.2,27.8,161.2,27.8,161.2,27.7C161.2,27.8,161.2,27.8,161.2,27.7C161.2,27.8,161.2,27.8,161.2,27.7
			C161.2,27.8,161.2,27.8,161.2,27.7L161.2,27.7z"/>
		<path class="st6" d="M139.4,11.2c0-3.4,1.6-6.6,4.2-8.7c-4.8-3.8-11.8-3-15.6,1.8s-3,11.8,1.8,15.6c4,3.2,9.8,3.2,13.8,0
			C141,17.8,139.4,14.6,139.4,11.2z"/>
		<path class="st7" d="M160.9,17.2v-0.3h-0.2v-0.1h0.4v0.1H161L160.9,17.2L160.9,17.2z M161.6,17.2v-0.3V17.2h-0.2l-0.1-0.2v0.3
			h-0.1v-0.4h0.1l0.1,0.3l0.1-0.3h0.1L161.6,17.2L161.6,17.2L161.6,17.2z"/>
		<path class="st7" d="M150.5,0.1c-2.5,0-4.9,0.8-6.9,2.4c4.8,3.8,5.6,10.8,1.8,15.6c-0.5,0.7-1.1,1.3-1.8,1.8
			c4.8,3.8,11.8,3,15.6-1.8s3-11.8-1.8-15.6C155.5,0.9,153,0.1,150.5,0.1z"/>
	</g>
	<g>
		<path class="st8" d="M223.4,24.5c5.8-5.3,6.1-14.2,0.9-20c-0.3-0.3-0.6-0.6-0.9-0.9C220.8,1.3,217.5,0,214,0
			c-7.8,0.1-14,6.5-13.8,14.3c0.1,7.6,6.2,13.7,13.8,13.8C217.5,28.2,220.9,26.9,223.4,24.5z"/>
		<path class="st9" d="M232.8,0c-4.2,0-8.1,1.9-10.8,5.1h2.8c0.4,0.5,0.7,1,1.1,1.5h-5c-0.3,0.5-0.6,1-0.8,1.5h6.6
			c0.2,0.5,0.4,1,0.6,1.5h-7.7c-0.2,0.5-0.3,1-0.4,1.5h8.6c0.5,2.5,0.4,5-0.4,7.4h-7.7c0.2,0.5,0.4,1,0.6,1.5h6.6
			c-0.2,0.5-0.5,1-0.8,1.5h-5c0.3,0.5,0.7,1,1.1,1.5h2.8c-0.4,0.5-0.9,1-1.4,1.5c5.7,5.2,14.5,4.8,19.7-0.9c2.4-2.6,3.7-6,3.6-9.5
			C246.8,6.4,240.6,0,232.8,0L232.8,0z"/>
		<path class="st9" d="M244.9,21.9c0-0.2,0.2-0.4,0.5-0.4c0.2,0,0.4,0.2,0.4,0.5c0,0.2-0.2,0.4-0.4,0.4
			C245.1,22.4,244.9,22.2,244.9,21.9L244.9,21.9z M245.4,22.3c0.2,0,0.3-0.2,0.3-0.3c0-0.2-0.2-0.3-0.3-0.3c-0.2,0-0.3,0.2-0.3,0.3
			l0,0C245,22.1,245.2,22.3,245.4,22.3z M245.3,22.1L245.3,22.1l-0.1-0.4h0.2h0.1l0.1,0.1c0,0,0,0.1-0.1,0.1l0.1,0.2h-0.1l-0.1-0.2
			h-0.1l0,0h0.1c0,0,0,0,0.1,0l0,0l0,0c0,0,0,0-0.1,0l0,0v0.2H245.3z"/>
		<path class="st10" d="M242,17.1c0-0.3,0.2-0.5,0.5-0.5s0.5,0.2,0.5,0.5s-0.3,0.5-0.6,0.5l0,0C242.2,17.6,242,17.4,242,17.1z
			 M242.4,17.5c0.2,0,0.3-0.2,0.3-0.3c0-0.2-0.2-0.3-0.3-0.3c-0.2,0-0.3,0.2-0.4,0.3l0,0C242.1,17.3,242.2,17.5,242.4,17.5z
			 M242.4,17.3L242.4,17.3l-0.1-0.4h0.2h0.1c0,0,0.1,0.1,0,0.1c0,0,0,0.1-0.1,0.1l0.1,0.2h-0.1l-0.1-0.2h-0.1l0,0h0.1c0,0,0,0,0.1,0
			l0,0l0,0c0,0,0,0-0.1,0h-0.1L242.4,17.3L242.4,17.3z"/>
		<polygon class="st10" points="212.3,17.6 210.6,17.6 211.6,12.1 209.2,17.6 207.7,17.6 207.4,12.1 206.3,17.6 204.8,17.6 
			206.1,10.4 208.8,10.4 209,14.9 210.9,10.4 213.7,10.4 		"/>
		<path class="st10" d="M231.7,17.5c-0.4,0.1-0.8,0.2-1.3,0.2c-0.9,0-1.4-0.4-1.4-1.3c0-0.2,0-0.3,0.1-0.5l0.1-0.6l0.1-0.5l0.8-4.4
			h1.7l-0.2,1.3h0.9l-0.2,1.4h-0.9l-0.5,2.4c0,0.1,0,0.2,0,0.2c0,0.3,0.2,0.4,0.6,0.4c0.2,0,0.3,0,0.5-0.1L231.7,17.5L231.7,17.5z"
			/>
		<path class="st10" d="M236.8,11.8c-0.1,0-0.1-0.1-0.2-0.1h-0.1c-0.1,0-0.1,0-0.2,0c-0.6,0-1,0.3-1.5,0.9l0.2-0.9h-1.6l-1.1,5.8
			h1.7c0.6-3.5,0.9-4.2,1.7-4.2h0.2h0.2L236.8,11.8L236.8,11.8z"/>
		<path class="st10" d="M224.9,13.6c0,0.7,0.4,1.3,1.3,1.6c0.7,0.3,0.8,0.4,0.8,0.6c0,0.4-0.3,0.5-1,0.5c-0.5,0-1.1-0.1-1.6-0.2
			l-0.2,1.3h0.1l0.3,0.1c0.1,0,0.3,0,0.5,0.1c0.4,0,0.7,0.1,1,0.1c1.9,0,2.7-0.6,2.7-1.9c0-0.8-0.4-1.3-1.2-1.6
			c-0.7-0.3-0.8-0.4-0.8-0.6c0-0.3,0.3-0.5,0.9-0.5c0.4,0,0.8,0,1.3,0.1l0.2-1.3c-0.5-0.1-1-0.1-1.6-0.1
			C225.5,11.7,224.8,12.5,224.9,13.6L224.9,13.6z"/>
		<path class="st10" d="M218,17.6h-1.4V17c-0.5,0.5-1.1,0.7-1.8,0.7c-0.8,0-1.5-0.6-1.6-1.4c0-0.1,0-0.1,0-0.2
			c0-1.4,1.1-2.2,3.1-2.2c0.2,0,0.5,0,0.7,0c0-0.1,0.1-0.2,0.1-0.4c0-0.4-0.3-0.5-1.1-0.5c-0.5,0-1,0.1-1.4,0.2l-0.2,0.1h-0.2
			l0.2-1.3c0.7-0.2,1.4-0.3,2.1-0.3c1.5,0,2.3,0.6,2.3,1.7c0,0.4-0.1,0.8-0.1,1.2l-0.4,2.1l-0.1,0.4v0.3v0.2H218L218,17.6z
			 M216.7,15c-0.1,0-0.3,0-0.4,0c-1,0-1.5,0.3-1.5,0.9c0,0.3,0.2,0.6,0.5,0.6h0.1C216.2,16.4,216.7,15.9,216.7,15z"/>
		<path class="st10" d="M223.7,17.5c-0.6,0.2-1.2,0.2-1.8,0.2c-1.9,0-3-0.9-3-2.6c0-2,1.3-3.5,3-3.5c1.4,0,2.3,0.8,2.3,2.1
			c0,0.5-0.1,1-0.2,1.4h-3.3c0,0.1,0,0.1,0,0.2c0,0.7,0.5,1,1.5,1c0.6,0,1.2-0.1,1.8-0.4L223.7,17.5L223.7,17.5z M222.8,14
			c0-0.1,0-0.2,0-0.3c0-0.4-0.3-0.7-0.7-0.8H222c-0.6,0-1,0.4-1.1,1L222.8,14z"/>
		<path class="st10" d="M242.2,14.9c-0.3,1.9-1.6,2.8-3.4,2.8c-2,0-2.8-1.2-2.8-2.7c0-2.1,1.3-3.5,3.4-3.5c1.8,0,2.8,1.1,2.8,2.6
			C242.3,14.5,242.3,14.7,242.2,14.9z M240.4,14.2c0-0.6-0.2-1.2-1-1.2c-0.9,0-1.5,1.1-1.5,2c0,0.8,0.4,1.3,1,1.3
			c0.7-0.2,1.2-0.7,1.3-1.4C240.4,14.7,240.4,14.4,240.4,14.2L240.4,14.2z"/>
	</g>
	<g transform="translate(-289.60744,-317.50471)">
		<path class="st11" d="M599,334.6c-1.6,6.6-8.3,10.6-14.8,8.9c-6.6-1.6-10.6-8.3-8.9-14.8c1.6-6.6,8.3-10.6,14.8-8.9
			C596.7,321.4,600.7,328,599,334.6L599,334.6z"/>
		<path class="st12" d="M592.6,329.9c0.2-1.6-1-2.5-2.7-3.1l0.6-2.2l-1.3-0.3l-0.5,2.1c-0.4-0.1-0.7-0.2-1.1-0.3l0.5-2.2l-1.3-0.3
			l-0.6,2.2c-0.3-0.1-0.6-0.1-0.9-0.2l0,0l-1.9-0.5l-0.4,1.4l1,0.2c0.5,0.1,0.6,0.5,0.6,0.8L584,330h0.1H584l-0.9,3.5
			c-0.1,0.2-0.2,0.4-0.6,0.3l-1-0.2l-0.7,1.5l1.7,0.4c0.3,0.1,0.6,0.2,1,0.2l-0.6,2.2l1.3,0.3l0.6-2.2c0.4,0.1,0.7,0.2,1.1,0.3
			l-0.5,2.2l1.3,0.3l0.6-2.2c2.3,0.4,4,0.3,4.7-1.8c0.6-1.7,0-2.6-1.2-3.3C591.7,331.6,592.4,331.1,592.6,329.9L592.6,329.9z
			 M589.5,334.2c-0.4,1.7-3.2,0.8-4.1,0.5l0.7-3C587,332,589.9,332.4,589.5,334.2L589.5,334.2z M589.9,329.8
			c-0.4,1.5-2.7,0.7-3.5,0.6l0.7-2.7C587.9,327.9,590.3,328.3,589.9,329.8z"/>
		<path class="st13" d="M610.8,326.8c1,0,1.9,0.2,2.6,0.5c0.7,0.4,1.3,0.8,1.8,1.4s0.8,1.3,1.1,2.1c0.2,0.8,0.3,1.7,0.3,2.6
			c0,1.4-0.3,2.8-0.8,4c-0.5,1.3-1.2,2.4-2.2,3.3c-0.9,0.9-2,1.7-3.2,2.2s-2.6,0.8-4,0.8c-0.2,0-0.5,0-1,0s-1-0.1-1.6-0.1
			c-0.6-0.1-1.2-0.2-1.9-0.4c-0.7-0.2-1.3-0.4-1.9-0.7l5.4-22.5l4.8-0.7l-1.9,8c0.4-0.2,0.8-0.3,1.2-0.4
			C609.9,326.8,610.3,326.8,610.8,326.8L610.8,326.8z M606.8,340c0.7,0,1.4-0.2,2-0.5s1.2-0.8,1.7-1.4s0.8-1.3,1.1-2
			c0.3-0.7,0.4-1.5,0.4-2.3c0-1-0.2-1.8-0.5-2.3c-0.3-0.6-0.9-0.8-1.8-0.8c-0.3,0-0.7,0.1-1.1,0.2c-0.5,0.1-0.9,0.3-1.3,0.7l-2,8.5
			c0.1,0,0.2,0,0.3,0.1c0.1,0,0.2,0,0.3,0c0.1,0,0.2,0,0.4,0S606.6,340,606.8,340L606.8,340z"/>
		<path class="st13" d="M621.6,343.4H617l3.9-16.3h4.6L621.6,343.4z M623.8,325.1c-0.6,0-1.2-0.2-1.7-0.6s-0.8-1-0.8-1.8
			c0-0.4,0.1-0.8,0.3-1.2c0.2-0.4,0.4-0.7,0.7-1c0.3-0.3,0.6-0.5,1-0.7s0.8-0.2,1.2-0.2c0.6,0,1.2,0.2,1.7,0.6s0.8,1,0.8,1.8
			c0,0.4-0.1,0.8-0.3,1.2c-0.2,0.4-0.4,0.7-0.7,1c-0.3,0.3-0.6,0.5-1,0.7C624.6,325.1,624.2,325.1,623.8,325.1L623.8,325.1z"/>
		<path class="st13" d="M629.5,323.1l4.8-0.7l-1.2,4.8h5.1l-0.9,3.8h-5.1l-1.4,5.7c-0.1,0.5-0.2,0.9-0.2,1.3s0,0.8,0.2,1.1
			c0.1,0.3,0.3,0.5,0.7,0.7c0.3,0.2,0.8,0.3,1.4,0.3c0.5,0,1,0,1.4-0.1c0.5-0.1,0.9-0.2,1.4-0.4l0.3,3.5c-0.6,0.2-1.3,0.4-2,0.6
			s-1.6,0.2-2.6,0.2c-1.4,0-2.5-0.2-3.3-0.6s-1.3-1-1.7-1.7c-0.3-0.7-0.5-1.6-0.4-2.5c0-1,0.2-2,0.4-3L629.5,323.1L629.5,323.1z"/>
		<path class="st13" d="M638.1,336.9c0-1.4,0.2-2.7,0.7-4c0.5-1.2,1.1-2.3,2-3.3c0.8-0.9,1.9-1.7,3.1-2.2s2.6-0.8,4-0.8
			c0.9,0,1.8,0.1,2.5,0.3c0.7,0.2,1.4,0.4,2,0.7l-1.6,3.6c-0.4-0.2-0.8-0.3-1.3-0.4c-0.4-0.1-1-0.2-1.6-0.2c-1.5,0-2.7,0.5-3.6,1.6
			s-1.3,2.5-1.3,4.2c0,1.1,0.2,1.9,0.7,2.6s1.3,1,2.5,1c0.6,0,1.2-0.1,1.7-0.2c0.6-0.1,1.1-0.3,1.5-0.5l0.3,3.7
			c-0.6,0.2-1.2,0.4-1.9,0.6c-0.7,0.2-1.5,0.3-2.5,0.3c-1.3,0-2.4-0.2-3.3-0.6s-1.6-0.9-2.2-1.5s-1-1.4-1.3-2.2
			C638.2,338.7,638.1,337.8,638.1,336.9L638.1,336.9z"/>
		<path class="st13" d="M658.4,343.9c-1.1,0-2-0.2-2.9-0.5c-0.8-0.3-1.5-0.8-2-1.4s-0.9-1.3-1.2-2.1c-0.3-0.8-0.4-1.7-0.4-2.7
			c0-1.2,0.2-2.5,0.6-3.7s1-2.4,1.8-3.3c0.8-1,1.7-1.8,2.9-2.4c1.1-0.6,2.4-0.9,3.9-0.9c1.1,0,2,0.2,2.8,0.5s1.5,0.8,2,1.4
			s0.9,1.3,1.2,2.1c0.3,0.8,0.4,1.7,0.4,2.7c0,1.2-0.2,2.5-0.6,3.7s-1,2.4-1.7,3.3c-0.8,1-1.7,1.8-2.9,2.4
			C661.3,343.5,659.9,343.9,658.4,343.9L658.4,343.9z M660.7,330.6c-0.7,0-1.3,0.2-1.8,0.6s-1,0.9-1.3,1.5c-0.4,0.6-0.6,1.3-0.8,2
			c-0.2,0.7-0.3,1.4-0.3,2c0,1,0.2,1.8,0.5,2.4s0.9,0.9,1.8,0.9c0.7,0,1.3-0.2,1.8-0.6s0.9-0.9,1.3-1.5s0.6-1.3,0.8-2
			c0.2-0.7,0.3-1.4,0.3-2c0-1-0.2-1.8-0.5-2.4S661.6,330.6,660.7,330.6L660.7,330.6z"/>
		<path class="st13" d="M672.6,343.4H668l3.9-16.3h4.6L672.6,343.4z M674.8,325.1c-0.6,0-1.2-0.2-1.7-0.6s-0.8-1-0.8-1.8
			c0-0.4,0.1-0.8,0.3-1.2c0.2-0.4,0.4-0.7,0.7-1c0.3-0.3,0.6-0.5,1-0.7s0.8-0.2,1.2-0.2c0.6,0,1.2,0.2,1.7,0.6s0.8,1,0.8,1.8
			c0,0.4-0.1,0.8-0.3,1.2c-0.2,0.4-0.4,0.7-0.7,1c-0.3,0.3-0.6,0.5-1,0.7C675.7,325.1,675.3,325.1,674.8,325.1z"/>
		<path class="st13" d="M679.8,327.9c0.3-0.1,0.7-0.2,1.2-0.4c0.4-0.1,0.9-0.3,1.4-0.4s1.1-0.2,1.8-0.3c0.7-0.1,1.4-0.1,2.2-0.1
			c2.4,0,4.1,0.7,5,2.1s1.1,3.3,0.5,5.8l-2.1,8.8h-4.6l2-8.6c0.1-0.5,0.2-1.1,0.3-1.6c0.1-0.5,0.1-0.9,0-1.3s-0.3-0.7-0.6-0.9
			c-0.3-0.2-0.8-0.4-1.4-0.4s-1.2,0.1-1.8,0.2l-3,12.6h-4.6L679.8,327.9z"/>
	</g>
	<rect x="451.6" y="15.9" class="st14" width="5.2" height="8.6"/>
	<circle class="st14" cx="454.2" cy="11.6" r="2.9"/>
	<path class="st14" d="M466.5,0.1H448v28.1h18.5l0,0c4-0.1,7.3-1.1,9.5-3c2.8-2.4,4.2-6.1,4.2-11.1c0-2.2-0.3-4.3-1.1-6.3
		c-0.7-1.7-1.7-3.2-3.1-4.4C473.7,1.3,470.4,0.1,466.5,0.1L466.5,0.1L466.5,0.1z M466.2,1.9c3.6,0,6.6,1,8.7,2.8
		c2.3,2.1,3.5,5.2,3.5,9.4c0,8.2-4,12.2-12.2,12.2h-16.3V1.9H466.2z"/>
	<path class="st15" d="M465.7,24.5h-6.6V4.2h6.3c5.5,0,11.3,2.2,11.3,10.2c0,8.5-5.8,10.1-11.3,10.1H465.7z"/>
	<path class="st12" d="M461.5,9.9c-0.2-0.2-0.5-0.4-0.8-0.5s-0.6-0.1-1-0.1h-1.9v5.1h2c0.3,0,0.6,0,0.9-0.1s0.5-0.2,0.7-0.4
		c0.3-0.3,0.4-0.6,0.6-0.9c0.1-0.4,0.2-0.7,0.1-1.1c0-0.4,0-0.8-0.2-1.2C461.9,10.4,461.8,10.1,461.5,9.9z M459.1,10.4h0.3
		c0.3,0,0.5,0,0.8,0c0.1,0,0.3,0.1,0.4,0.2c0.1,0.1,0.2,0.3,0.2,0.4c0.1,0.3,0.1,0.5,0.1,0.8s0,0.6-0.1,0.9c0,0.2-0.1,0.3-0.2,0.4
		c-0.1,0.1-0.2,0.1-0.3,0.2c-0.2,0-0.4,0.1-0.6,0h-0.6L459.1,10.4L459.1,10.4z"/>
	<path class="st12" d="M464.3,12.3h2.4v-1.1h-2.4v-0.8h2.6V9.3H463v5.1h4v-1.1h-2.7V12.3z"/>
	<path class="st12" d="M469.3,9.3l-2,5.1h1.3l0.4-1.1h1.8c0.1,0.1,0.4,1.1,0.4,1.1h1.4l-2.1-5.1C470.5,9.3,469.3,9.3,469.3,9.3z
		 M470.4,12.2h-1c0.1-0.2,0.3-0.9,0.5-1.3L470.4,12.2z"/>
	<path class="st12" d="M474.3,13.4v-4h-1.2v5.1h3.7v-1.1C476.8,13.4,474.3,13.4,474.3,13.4z"/>
	<g>
		<path class="st16" d="M523.2,24.9c-0.1-0.1-0.3-0.2-0.5-0.3l-0.2-0.1l0,0c0.1-0.1,0.3-0.2,0.4-0.3c0.1-0.1,0.2-0.3,0.2-0.4
			c0.1-0.2,0.1-0.4,0.1-0.6s0-0.5-0.1-0.7s-0.2-0.4-0.4-0.5c-0.2-0.1-0.5-0.2-0.7-0.3c-0.3-0.1-0.7-0.1-1-0.1h-2
			c-0.1,0-0.1,0.1-0.1,0.1v6.1c0,0.1,0.1,0.1,0.1,0.1l0,0h2.1c0.3,0,0.7,0,1-0.1s0.5-0.2,0.8-0.3c0.2-0.2,0.4-0.4,0.5-0.6
			c0.2-0.5,0.2-1,0.1-1.5C523.5,25.2,523.4,25.1,523.2,24.9z M522,23.8c0,0.1-0.1,0.2-0.2,0.2c-0.1,0.1-0.2,0.1-0.3,0.1
			c-0.2,0-0.4,0.1-0.5,0h-0.7v-1.3h0.7c0.2,0,0.4,0,0.5,0s0.2,0,0.3,0.1c0.1,0,0.1,0.1,0.2,0.2c0,0.1,0.1,0.2,0,0.3
			C522,23.5,522,23.7,522,23.8z M520.2,25.3h0.8c0.2,0,0.4,0,0.6,0c0.1,0,0.3,0.1,0.4,0.1s0.2,0.1,0.2,0.2c0.1,0.1,0.1,0.3,0.1,0.4
			c0,0.2,0,0.3-0.1,0.4s-0.2,0.2-0.3,0.2c-0.2,0.1-0.3,0.1-0.5,0.1s-0.4,0-0.7,0h-0.6L520.2,25.3L520.2,25.3z"/>
		<path class="st16" d="M527.7,23.4c-0.2-0.1-0.4-0.2-0.7-0.3c-0.3-0.1-0.6-0.1-0.9-0.1c-0.2,0-0.5,0-0.7,0.1
			c-0.2,0-0.4,0.1-0.5,0.2s-0.3,0.2-0.4,0.3c-0.1,0.1-0.2,0.2-0.3,0.3c0,0.1,0,0.1,0,0.2l0,0l0.8,0.5h0.1c0,0,0.1,0,0.1-0.1
			c0.1-0.1,0.2-0.2,0.3-0.3c0.1,0,0.2-0.1,0.3-0.1c0.1,0,0.2,0,0.4,0c0.1,0,0.3,0,0.4,0s0.2,0.1,0.3,0.1c0.1,0,0.1,0.1,0.2,0.2
			c0,0.1,0.1,0.2,0.1,0.3v0.1l-0.9,0.1c-0.3,0-0.5,0.1-0.8,0.1c-0.2,0.1-0.4,0.2-0.6,0.3c-0.2,0.1-0.3,0.3-0.4,0.5s-0.2,0.5-0.2,0.8
			c0,0.2,0,0.4,0.1,0.6c0.1,0.4,0.4,0.7,0.8,0.8c0.2,0.1,0.4,0.1,0.7,0.1c0.3,0,0.6-0.1,0.8-0.2c0.2-0.1,0.3-0.2,0.5-0.3v0.3
			c0,0.1,0.1,0.1,0.1,0.1l0,0h0.9c0.1,0,0.1,0,0.1-0.1l0,0v-3.1c0-0.3,0-0.6-0.1-0.8C528,23.7,527.9,23.5,527.7,23.4z M526,27.1
			c-0.2,0-0.3,0-0.5-0.1c-0.1-0.1-0.2-0.3-0.1-0.4c0-0.1,0-0.2,0.1-0.3c0-0.1,0.1-0.2,0.2-0.2c0.1-0.1,0.2-0.1,0.4-0.1
			c0.2,0,0.3-0.1,0.5-0.1h0.5v0.7c-0.1,0.1-0.2,0.1-0.2,0.2c-0.1,0.1-0.2,0.1-0.3,0.2c-0.1,0-0.2,0.1-0.3,0.1
			C526.2,27.1,526.1,27.1,526,27.1z"/>
		<path class="st16" d="M533.1,23.5L533.1,23.5c-0.1-0.2-0.3-0.3-0.5-0.4s-0.5-0.1-0.7-0.1s-0.3,0-0.5,0.1c-0.2,0-0.3,0.1-0.4,0.2
			s-0.3,0.2-0.4,0.3l-0.1,0.1v-0.4c0-0.1,0-0.1-0.1-0.1l0,0h-0.9c-0.1,0-0.1,0.1-0.1,0.1l0,0v4.6c0,0.1,0.1,0.1,0.1,0.1l0,0h1
			c0.1,0,0.1,0,0.1-0.1l0,0v-3.1c0.1-0.1,0.2-0.2,0.3-0.2c0.1-0.1,0.2-0.2,0.3-0.2c0.1-0.1,0.2-0.1,0.3-0.1c0.2-0.1,0.4-0.1,0.6,0
			c0.1,0,0.1,0.1,0.2,0.2c0,0.1,0.1,0.2,0.1,0.3c0,0.2,0,0.4,0,0.6V28c0,0.1,0,0.1,0.1,0.1l0,0h0.9c0.1,0,0.1-0.1,0.1-0.1l0,0v-3.1
			c0-0.2,0-0.5-0.1-0.7C533.3,23.9,533.2,23.7,533.1,23.5z"/>
		<path class="st16" d="M538.2,27.1l-0.7-0.5c-0.1,0-0.1,0-0.2,0c-0.1,0.1-0.1,0.1-0.2,0.2s-0.1,0.1-0.2,0.1s-0.1,0.1-0.2,0.1
			s-0.2,0-0.3,0c-0.2,0-0.3,0-0.5-0.1c-0.1-0.1-0.2-0.1-0.3-0.3c-0.1-0.1-0.1-0.3-0.2-0.5c0-0.2-0.1-0.4-0.1-0.7
			c0-0.4,0-0.8,0.2-1.2c0.2-0.2,0.5-0.4,0.8-0.3c0.2,0,0.4,0,0.5,0.1s0.3,0.2,0.3,0.3c0,0,0,0,0.1,0.1h0.1l0.7-0.5
			c0.1,0,0.1-0.1,0-0.2l0,0c-0.2-0.3-0.4-0.5-0.7-0.7c-0.7-0.3-1.4-0.3-2.1,0c-0.3,0.1-0.5,0.3-0.7,0.5s-0.3,0.5-0.4,0.8
			c-0.2,0.7-0.2,1.4,0,2.1c0.1,0.3,0.2,0.6,0.4,0.8c0.2,0.2,0.4,0.4,0.7,0.5c0.3,0.1,0.7,0.2,1,0.2c0.2,0,0.4,0,0.6-0.1
			c0.2,0,0.3-0.1,0.5-0.2c0.1-0.1,0.3-0.2,0.4-0.3c0.1-0.1,0.2-0.2,0.3-0.4C538.3,27.2,538.3,27.1,538.2,27.1z"/>
		<path class="st16" d="M542.6,23.7c-0.2-0.2-0.4-0.4-0.7-0.5c-0.7-0.2-1.4-0.2-2,0c-0.3,0.1-0.5,0.3-0.7,0.5s-0.3,0.5-0.4,0.8
			s-0.1,0.7-0.1,1s0,0.7,0.1,1s0.2,0.6,0.4,0.8c0.2,0.2,0.4,0.4,0.7,0.5c0.7,0.2,1.4,0.2,2,0c0.3-0.1,0.5-0.3,0.7-0.5
			s0.3-0.5,0.4-0.8s0.1-0.7,0.1-1c0-0.4,0-0.7-0.1-1C542.9,24.2,542.8,24,542.6,23.7z M541.7,26.7c-0.2,0.2-0.5,0.4-0.8,0.3
			c-0.3,0-0.6-0.1-0.8-0.3c-0.3-0.7-0.3-1.6,0-2.3c0.2-0.2,0.5-0.4,0.8-0.3c0.3,0,0.6,0.1,0.8,0.3c0.2,0.4,0.3,0.8,0.2,1.2
			C541.9,26,541.8,26.4,541.7,26.7z"/>
		<path class="st16" d="M547.8,23.5L547.8,23.5c-0.1-0.2-0.3-0.3-0.5-0.4s-0.5-0.1-0.7-0.1s-0.3,0-0.5,0.1c-0.2,0-0.3,0.1-0.4,0.2
			s-0.3,0.2-0.4,0.3l-0.1,0.1v-0.4c0-0.1-0.1-0.1-0.1-0.1l0,0h-0.9c-0.1,0-0.1,0-0.1,0.1l0,0v4.6c0,0.1,0,0.1,0.1,0.1l0,0h0.9
			c0.1,0,0.1-0.1,0.1-0.1l0,0v-3.1c0.1-0.1,0.2-0.2,0.3-0.2c0.1-0.1,0.2-0.2,0.3-0.2c0.1-0.1,0.2-0.1,0.3-0.1c0.2-0.1,0.4-0.1,0.6,0
			c0.1,0,0.1,0.1,0.1,0.2s0.1,0.2,0.1,0.3c0,0.2,0,0.3,0,0.6V28c0,0.1,0,0.1,0.1,0.1l0,0h0.9c0.1,0,0.1,0,0.1-0.1l0,0v-3.1
			c0-0.2,0-0.5-0.1-0.7C547.9,23.9,547.9,23.7,547.8,23.5z"/>
		<path class="st16" d="M551.5,27.1C551.5,27,551.5,27,551.5,27.1c-0.1-0.1-0.1-0.1-0.2-0.1s-0.2,0.1-0.3,0.1c-0.2,0-0.3,0-0.5,0
			c-0.1,0-0.1-0.1-0.1-0.1c0-0.1-0.1-0.1-0.1-0.2s0-0.3,0-0.4v-2.2h1c0.1,0,0.1-0.1,0.1-0.1v-0.8c0-0.1-0.1-0.1-0.1-0.1l0,0h-1V22
			c0-0.1-0.1-0.1-0.1-0.1l0,0h-0.9c-0.1,0-0.1,0-0.1,0.1l0,0v1.2h-0.5c-0.1,0-0.1,0-0.1,0.1l0,0v0.8c0,0.1,0.1,0.1,0.1,0.1l0,0h0.5
			v2.3c0,0.2,0,0.5,0.1,0.7c0,0.2,0.1,0.4,0.3,0.5c0.1,0.1,0.3,0.2,0.5,0.3c0.2,0.1,0.5,0.1,0.7,0.1s0.3,0,0.5,0s0.3-0.1,0.5-0.1
			c0.1,0,0.1-0.1,0.1-0.1L551.5,27.1z"/>
		<path class="st16" d="M555.5,23.4c-0.2-0.1-0.4-0.2-0.7-0.3c-0.3-0.1-0.6-0.1-0.9-0.1c-0.2,0-0.5,0-0.7,0.1
			c-0.2,0-0.4,0.1-0.5,0.2s-0.3,0.2-0.4,0.3c-0.1,0.1-0.2,0.2-0.2,0.3c0,0.1,0,0.1,0,0.2l0,0l0.7,0.5h0.1c0,0,0.1,0,0.1-0.1
			c0.1-0.1,0.2-0.2,0.3-0.3c0.1,0,0.2-0.1,0.3-0.1c0.1,0,0.2,0,0.4,0c0.1,0,0.3,0,0.4,0s0.2,0.1,0.3,0.1c0.1,0,0.1,0.1,0.2,0.2
			c0,0.1,0.1,0.2,0.1,0.3v0.1l-0.9,0.1c-0.3,0-0.5,0.1-0.8,0.1c-0.2,0.1-0.4,0.2-0.6,0.3c-0.2,0.1-0.3,0.3-0.4,0.5s-0.2,0.5-0.2,0.8
			c0,0.2,0,0.4,0.1,0.6c0.1,0.4,0.4,0.7,0.8,0.8c0.2,0.1,0.4,0.1,0.7,0.1c0.3,0,0.6-0.1,0.8-0.2c0.2-0.1,0.3-0.2,0.5-0.3v0.3
			c0,0.1,0,0.1,0.1,0.1l0,0h0.9c0.1,0,0.1,0,0.1-0.1l0,0v-3.1c0-0.3,0-0.6-0.1-0.8C555.8,23.7,555.7,23.5,555.5,23.4z M553.8,27.1
			c-0.2,0-0.3,0-0.5-0.1c-0.1-0.1-0.2-0.3-0.1-0.4c0-0.1,0-0.2,0.1-0.3c0-0.1,0.1-0.2,0.2-0.2c0.1-0.1,0.2-0.1,0.4-0.1
			c0.2,0,0.3-0.1,0.5-0.1h0.5v0.7l-0.2,0.2c-0.1,0.1-0.2,0.1-0.3,0.2c-0.1,0-0.2,0.1-0.3,0.1C554,27.1,553.9,27.1,553.8,27.1z"/>
		<path class="st16" d="M560.9,27.1l-0.7-0.5c-0.1,0-0.1,0-0.2,0c-0.1,0.1-0.1,0.1-0.2,0.2s-0.1,0.1-0.2,0.1s-0.1,0.1-0.2,0.1
			s-0.2,0-0.3,0c-0.2,0-0.3,0-0.5-0.1c-0.1-0.1-0.2-0.1-0.3-0.3c-0.1-0.1-0.1-0.3-0.2-0.5c0-0.2-0.1-0.4-0.1-0.7
			c0-0.4,0.1-0.8,0.3-1.2c0.2-0.2,0.5-0.4,0.8-0.3c0.2,0,0.3,0,0.5,0.1c0.1,0.1,0.3,0.2,0.3,0.3c0,0,0,0,0.1,0.1h0.1l0.7-0.5
			c0.1,0,0.1-0.1,0-0.2c-0.2-0.3-0.4-0.5-0.7-0.7c-0.7-0.3-1.4-0.3-2.1,0c-0.3,0.1-0.5,0.3-0.7,0.5s-0.3,0.5-0.4,0.8s-0.1,0.7-0.1,1
			s0,0.7,0.1,1s0.2,0.6,0.4,0.8c0.2,0.2,0.4,0.4,0.7,0.5c0.3,0.1,0.7,0.2,1,0.2c0.2,0,0.4,0,0.6-0.1c0.2,0,0.3-0.1,0.5-0.2
			c0.1-0.1,0.3-0.2,0.4-0.3c0.1-0.1,0.2-0.2,0.3-0.4C561,27.2,560.9,27.1,560.9,27.1z"/>
		<path class="st16" d="M564.2,27.9l-0.2-0.8c0-0.1-0.1-0.1-0.2-0.1l0,0c-0.1,0-0.2,0.1-0.3,0.1c-0.2,0-0.3,0-0.5,0
			c-0.1,0-0.1-0.1-0.1-0.1c0-0.1-0.1-0.1-0.1-0.2s0-0.3,0-0.4v-2.2h1c0.1,0,0.1-0.1,0.1-0.1v-0.8c0-0.1-0.1-0.1-0.1-0.1l0,0h-1V22
			c0-0.1-0.1-0.1-0.1-0.1l0,0h-0.9c-0.1,0-0.1,0-0.1,0.1l0,0v1.2h-0.5c-0.1,0-0.1,0.1-0.1,0.1l0,0v0.8c0,0.1,0.1,0.1,0.1,0.1h0.5
			v2.3c0,0.2,0,0.5,0.1,0.7c0,0.2,0.1,0.4,0.3,0.5c0.1,0.1,0.3,0.2,0.5,0.3c0.2,0.1,0.5,0.1,0.7,0.1s0.3,0,0.5,0s0.3-0.1,0.5-0.1
			C564.2,28,564.2,27.9,564.2,27.9z"/>
		<path class="st16" d="M545.2,5l-3.4,3.9l-0.5,0.5l-3.5,3.9h-13.9l3.4-3.9h-6.6c-1,0-1.9,0.8-1.9,1.9v5.1c0,1,0.8,1.9,1.9,1.9h24.2
			c1.6,0,3.1-0.7,4.1-1.9l6.5-7.5l3.4-3.9C558.9,5,545.2,5,545.2,5z"/>
		<path class="st17" d="M537.9,13.3l3.4-3.9l0.4-0.5l3.5-3.9h13.9l-3.4,3.9h6.6c1,0,1.9-0.8,1.9-1.9V2c0-1-0.8-1.9-1.9-1.9h-24.2
			c-1.6,0-3.1,0.7-4.1,1.9l-6.5,7.5l-3.4,3.9L537.9,13.3L537.9,13.3z"/>
	</g>
	<g>
		<g>
			<path class="st18" d="M627.3,4.3c0-0.4-0.3-0.7-0.7-0.6c-1.1,0.1-3.3,0.2-5.4-0.1c-2.4-0.3-4.9-2.5-5.8-3.4
				c-0.2-0.2-0.5-0.2-0.7,0c-0.9,0.9-3.4,3.1-5.8,3.4c-2.1,0.3-4.4,0.2-5.4,0.1c-0.4,0-0.7,0.3-0.7,0.6c0,2.2,0.1,9.3,2.6,14.7
				c2.8,5.8,7.7,8.4,9.2,9c0.3,0.1,0.6,0.1,0.9,0c1.5-0.7,6.4-3.2,9.2-9C627.2,13.7,627.3,6.6,627.3,4.3z"/>
		</g>
		<g>
			<g>
				<path class="st19" d="M606.8,19.9c-2.5-5.3-2.7-12.5-2.6-14.7c0-0.4,0.3-0.7,0.7-0.6c1.1,0.1,3.3,0.2,5.4-0.1
					c2.4-0.3,4.9-2.5,5.8-3.4c0.1-0.1,0.1-0.1,0.2-0.1c-0.3-0.3-0.6-0.5-0.8-0.7c-0.2-0.2-0.5-0.2-0.7,0c-0.9,0.9-3.4,3.1-5.8,3.4
					c-2.1,0.3-4.4,0.2-5.4,0.1c-0.4,0-0.7,0.3-0.7,0.6c0,2.2,0.1,9.3,2.6,14.7c2,4.2,5.1,6.7,7.3,8
					C610.8,25.6,608.4,23.3,606.8,19.9z"/>
			</g>
		</g>
		<g>
			<g>
				<path class="st20" d="M627.3,4.3c0-0.4-0.3-0.7-0.7-0.6c-0.7,0.1-1.8,0.1-3.1,0.1c0,2.9-0.4,9-2.6,13.8c-2.6,5.6-7.3,8.1-9,8.9
					c1.2,0.8,2.2,1.3,2.7,1.5c0.3,0.1,0.6,0.1,0.9,0c1.5-0.7,6.4-3.2,9.2-9C627.2,13.7,627.3,6.6,627.3,4.3z"/>
			</g>
		</g>
		<g>
			<path class="st12" d="M611.1,15.5c0-0.2-0.1-0.4-0.2-0.5c-0.2-0.1-0.4-0.2-0.8-0.4c-0.4-0.1-0.7-0.3-0.9-0.4
				c-0.8-0.4-1.2-0.9-1.2-1.6c0-0.3,0.1-0.6,0.3-0.9c0.2-0.3,0.5-0.5,0.8-0.6c0.4-0.1,0.8-0.2,1.2-0.2c0.4,0,0.8,0.1,1.2,0.2
				c0.3,0.2,0.6,0.4,0.8,0.7c0.2,0.3,0.3,0.6,0.3,1h-1.5c0-0.2-0.1-0.4-0.2-0.6c-0.2-0.1-0.4-0.2-0.6-0.2c-0.3,0-0.5,0.1-0.6,0.2
				c-0.2,0.1-0.2,0.3-0.2,0.4c0,0.2,0.1,0.3,0.2,0.4c0.2,0.1,0.5,0.3,0.9,0.4c0.4,0.1,0.8,0.3,1,0.4c0.7,0.4,1,0.9,1,1.6
				c0,0.5-0.2,0.9-0.6,1.2c-0.4,0.3-0.9,0.5-1.6,0.5c-0.5,0-0.9-0.1-1.3-0.3c-0.4-0.2-0.7-0.4-0.9-0.7c-0.2-0.3-0.3-0.7-0.3-1.1h1.5
				c0,0.3,0.1,0.6,0.3,0.7s0.4,0.2,0.8,0.2c0.2,0,0.4-0.1,0.6-0.2C611,15.8,611.1,15.7,611.1,15.5z"/>
		</g>
		<g>
			<path class="st12" d="M616.3,15.5c0-0.2-0.1-0.4-0.2-0.5c-0.2-0.1-0.4-0.2-0.8-0.4c-0.4-0.1-0.7-0.3-0.9-0.4
				c-0.8-0.4-1.2-0.9-1.2-1.6c0-0.3,0.1-0.6,0.3-0.9c0.2-0.3,0.5-0.5,0.8-0.6c0.4-0.1,0.8-0.2,1.2-0.2c0.4,0,0.8,0.1,1.2,0.2
				c0.3,0.2,0.6,0.4,0.8,0.7c0.2,0.3,0.3,0.6,0.3,1h-1.5c0-0.2-0.1-0.4-0.2-0.6c-0.2-0.1-0.4-0.2-0.6-0.2c-0.3,0-0.5,0.1-0.6,0.2
				c-0.2,0.1-0.2,0.3-0.2,0.4c0,0.2,0.1,0.3,0.2,0.4c0.2,0.1,0.5,0.3,0.9,0.4c0.4,0.1,0.8,0.3,1,0.4c0.7,0.4,1,0.9,1,1.6
				c0,0.5-0.2,0.9-0.6,1.2c-0.4,0.3-0.9,0.5-1.6,0.5c-0.5,0-0.9-0.1-1.3-0.3c-0.4-0.2-0.7-0.4-0.9-0.7c-0.2-0.3-0.3-0.7-0.3-1.1h1.5
				c0,0.3,0.1,0.6,0.3,0.7c0.2,0.2,0.4,0.2,0.8,0.2c0.2,0,0.4-0.1,0.6-0.2C616.2,15.8,616.3,15.7,616.3,15.5z"/>
		</g>
		<g>
			<path class="st12" d="M619.9,16h2.5v1.1h-4v-6h1.5V16z"/>
		</g>
		<g>
			<path class="st21" d="M622.4,16h-0.8c-0.1,0.4-0.3,0.8-0.5,1.1h1.3V16z"/>
		</g>
	</g>
</g>
</svg>
